<svg id="Layer_1" data-name="Layer 1" xmlns="http://www.w3.org/2000/svg" viewBox="0 0 103.87 40"><defs><style>.cls-1{fill:#1d1d1b;}.cls-2{fill:#be1622;}.cls-3{fill:#fff;}</style></defs><title>peru.cvg</title><path class="cls-1" d="M66.52,43.24a2.88,2.88,0,0,1-2.9-3.53L69.42,6.76a4.39,4.39,0,0,1,4.15-3.53h30.3a2.88,2.88,0,0,1,2.91,3.53L101,39.71a4.39,4.39,0,0,1-4.15,3.53H66.52Z" transform="translate(-2.96 -3.24)"/><path class="cls-1" d="M36.22,43.24a2.88,2.88,0,0,1-2.9-3.53L39.12,6.76a4.38,4.38,0,0,1,4.15-3.53h30.3a2.88,2.88,0,0,1,2.9,3.53L70.67,39.71a4.39,4.39,0,0,1-4.15,3.53H36.22Z" transform="translate(-2.96 -3.24)"/><path class="cls-1" d="M5.92,43.24A2.88,2.88,0,0,1,3,39.71L8.82,6.76A4.39,4.39,0,0,1,13,3.24h30.3a2.88,2.88,0,0,1,2.91,3.53L40.37,39.71a4.39,4.39,0,0,1-4.15,3.53H5.92Z" transform="translate(-2.96 -3.24)"/><polygon class="cls-2" points="33.88 36.47 3.58 36.47 9.39 3.53 39.69 3.53 33.88 36.47"/><polygon class="cls-3" points="64.18 36.47 33.88 36.47 39.69 3.53 69.99 3.53 64.18 36.47"/><polygon class="cls-2" points="94.48 36.47 64.18 36.47 69.99 3.53 100.29 3.53 94.48 36.47"/></svg>